# xmcd
#
# Track frame offsets: 
#        182
#        38670
#        78435
#        131657
#        196580
#        231182
#
# Disc length: 3545 seconds
#
# Revision: 4
# Processed by: cddbd v1.5.2PL0 Copyright (c) Steve Scherf et al.
# Submitted via: ExactAudioCopy v0.99pb5
#
DISCID=410dd706
DTITLE=Messiaen, Olivier - Piano Works - Volume 3 (Peter Hill - Brilli
DTITLE=ant Classics, 7cd)
DYEAR=1986
DGENRE=Classical
TTITLE0=Catalogue d'oiseaux (1956-58) - Book 1 - I. Le Chocard des Alp
TTITLE0=es
TTITLE1=Catalogue d'oiseaux - Book 1 - II. Le Loriot
TTITLE2=Catalogue d'oiseaux - Book 1 - III. Le Merle bleu
TTITLE3=Catalogue d'oiseaux - Book 2 - Le Traquet Stapazin
TTITLE4=Catalogue d'oiseaux - Book 3 - I. La Chouette Hulotte
TTITLE5=Catalogue d'oiseaux - Book 3 - II. L'Alouette Lulu
EXTD=YEAR: 1986
EXTT0=Book I
EXTT1=Book I\n
EXTT2=Book I
EXTT3=Book II
EXTT4=Book III
EXTT5=Book III
PLAYORDER=
